<svg width="62" height="55" viewBox="0 0 62 55" fill="none" xmlns="http://www.w3.org/2000/svg">
<path d="M15.4926 17.9625L19.8636 37.0142H52.5488L56.9198 17.9625H27.075H15.4926Z" fill="#7EB693"/>
<path d="M52.5055 7.93301H40.016V11.8701H52.5055V7.93301Z" fill="#7EB693"/>
<path d="M55.2565 40.3989H17.1558C16.8397 40.3989 16.5656 40.1802 16.4958 39.8722L10.5774 13.8779C9.97829 11.2453 7.67399 9.40739 4.97437 9.40739H1.41098C1.03731 9.40739 0.734039 9.10412 0.734039 8.73045C0.734039 8.35678 1.03731 8.05351 1.41098 8.05351H4.97437C8.30964 8.05351 11.1568 10.3246 11.8974 13.5773L17.6954 39.0457H54.7157L60.1325 15.2554H27.075C26.7013 15.2554 26.3981 14.9522 26.3981 14.5785C26.3981 14.2048 26.7013 13.9016 27.075 13.9016H60.9814C61.1879 13.9016 61.3821 13.9957 61.5101 14.1561C61.6387 14.3172 61.6874 14.5277 61.6407 14.7288L55.9159 39.8722C55.8462 40.1802 55.5727 40.3989 55.2565 40.3989Z" fill="black"/>
<path d="M13.8924 49.7366C10.945 49.7366 8.54659 47.3389 8.54659 44.3915C8.54659 41.4441 10.9443 39.0457 13.8924 39.0457H55.2139C55.5883 39.0457 55.8909 39.3483 55.8909 39.7226C55.8909 40.097 55.5883 40.3996 55.2139 40.3996H13.8924C11.6916 40.3996 9.90046 42.1908 9.90046 44.3915C9.90046 46.5922 11.6916 48.3827 13.8924 48.3827C14.266 48.3827 14.5693 48.6853 14.5693 49.0596C14.5693 49.434 14.266 49.7366 13.8924 49.7366Z" fill="black"/>
<path d="M50.4374 54.0304C47.6972 54.0304 45.4673 51.8005 45.4673 49.0596C45.4673 46.3187 47.6972 44.0889 50.4374 44.0889C53.1783 44.0889 55.4082 46.3187 55.4082 49.0596C55.4082 51.8005 53.1783 54.0304 50.4374 54.0304ZM50.4374 45.4428C48.4438 45.4428 46.8212 47.0647 46.8212 49.0596C46.8212 51.0546 48.4432 52.6765 50.4374 52.6765C52.4317 52.6765 54.0543 51.0546 54.0543 49.0596C54.0543 47.0647 52.4317 45.4428 50.4374 45.4428Z" fill="black"/>
<path d="M23.7221 54.0304C20.9819 54.0304 18.7521 51.8005 18.7521 49.0596C18.7521 46.3187 20.9819 44.0889 23.7221 44.0889C26.463 44.0889 28.6929 46.3187 28.6929 49.0596C28.6929 51.8005 26.463 54.0304 23.7221 54.0304ZM23.7221 45.4428C21.7279 45.4428 20.1059 47.0647 20.1059 49.0596C20.1059 51.0546 21.7279 52.6765 23.7221 52.6765C25.7164 52.6765 27.339 51.0546 27.339 49.0596C27.339 47.0647 25.7164 45.4428 23.7221 45.4428Z" fill="black"/>
<path d="M40.0539 49.7366H28.0159C27.6423 49.7366 27.339 49.434 27.339 49.0596C27.339 48.6853 27.6423 48.3827 28.0159 48.3827H40.0539C40.4282 48.3827 40.7308 48.6853 40.7308 49.0596C40.7308 49.434 40.4282 49.7366 40.0539 49.7366Z" fill="black"/>
<path d="M55.2132 15.2548H37.3083C36.9339 15.2548 36.6313 14.9515 36.6313 14.5778V5.22527C36.6313 4.8516 36.9339 4.54833 37.3083 4.54833H55.2132C55.5876 4.54833 55.8902 4.8516 55.8902 5.22527V14.5778C55.8902 14.9522 55.5876 15.2548 55.2132 15.2548ZM37.9852 13.9009H54.5363V5.90221H37.9852V13.9009Z" fill="black"/>
<path d="M19.5603 15.2548C19.1866 15.2548 18.8834 14.9515 18.8834 14.5778V0.81097C18.8834 0.437301 19.1866 0.134033 19.5603 0.134033H43.0534C43.4277 0.134033 43.7303 0.437301 43.7303 0.81097V5.22527C43.7303 5.59894 43.4277 5.90221 43.0534 5.90221C42.6791 5.90221 42.3765 5.59894 42.3765 5.22527V1.48791H20.2373V14.5778C20.2373 14.9522 19.934 15.2548 19.5603 15.2548Z" fill="black"/>
<path d="M35.9544 33.7629C35.58 33.7629 35.2774 33.4603 35.2774 33.086V21.0784C35.2774 20.7048 35.58 20.4015 35.9544 20.4015C36.3287 20.4015 36.6313 20.7048 36.6313 21.0784V33.086C36.6313 33.4603 36.3287 33.7629 35.9544 33.7629Z" fill="black"/>
<path d="M41.9574 27.7591H29.9506C29.5769 27.7591 29.2737 27.4559 29.2737 27.0822C29.2737 26.7085 29.5769 26.4053 29.9506 26.4053H41.9574C42.3318 26.4053 42.6344 26.7085 42.6344 27.0822C42.6344 27.4559 42.3318 27.7591 41.9574 27.7591Z" fill="black"/>
</svg>
