<svg width="23" height="23" viewBox="0 0 23 23" fill="none" xmlns="http://www.w3.org/2000/svg">
<path d="M20.6006 17.6575V16.7082L21.6449 15.9487C21.7398 15.8538 21.8348 15.7588 21.7398 15.6639L20.7905 14.0501C20.7905 13.9551 20.6006 13.9551 20.5057 13.9551L19.3665 14.4298C19.0817 14.2399 18.7969 14.0501 18.5121 13.9551L18.3223 12.721C18.3223 12.6261 18.2273 12.5311 18.1324 12.5311H16.2338C16.0439 12.5311 15.949 12.6261 15.949 12.721L15.7591 13.9551C15.4743 14.145 15.2844 14.2399 14.9996 14.4298L13.8605 13.9551C13.7655 13.9551 13.6706 13.9551 13.5757 14.0501L12.6263 15.6639C12.6263 15.7588 12.6263 15.8538 12.7213 15.9487L13.7655 16.7082V17.6575L12.7213 18.4169C12.6263 18.5119 12.5314 18.6068 12.6263 18.7017L13.5757 20.3156C13.6706 20.4105 13.7655 20.4105 13.8605 20.4105L14.9996 19.9358C15.1895 20.1257 15.4743 20.3156 15.7591 20.4105L15.949 21.6446C16.0439 21.7395 16.1388 21.8345 16.2338 21.8345H18.1324C18.2273 21.8345 18.3223 21.7395 18.3223 21.6446L18.5121 20.4105C18.7969 20.2206 18.9868 20.1257 19.2716 19.9358L20.4108 20.3156C20.5057 20.3156 20.6006 20.3156 20.6956 20.2206L21.6449 18.6068C21.7398 18.5119 21.7398 18.4169 21.6449 18.4169L20.6006 17.6575ZM17.0882 18.5119C16.3287 18.5119 15.6642 17.8473 15.6642 17.0879C15.6642 16.3284 16.3287 15.6639 17.0882 15.6639C17.8476 15.6639 18.5121 16.3284 18.5121 17.0879C18.5121 17.8473 17.8476 18.5119 17.0882 18.5119ZM11.677 20.8852H2.84835C1.8041 20.8852 0.949707 20.0308 0.949707 18.9865V3.79739C0.949707 2.75314 1.8041 1.89875 2.84835 1.89875H19.9361C20.9804 1.89875 21.8348 2.75314 21.8348 3.79739V12.4362C21.2652 11.8666 20.6006 11.392 19.9361 11.1072V5.69603H2.84835V18.9865H10.7277C10.9176 19.651 11.2024 20.3156 11.677 20.8852Z" fill="#7EB693"/>
</svg>
