<svg width="17" height="15" viewBox="0 0 17 15" fill="none" xmlns="http://www.w3.org/2000/svg">
<path d="M8.37061 4.80767L10.8041 7.24121L10.8157 7.11374C10.8157 5.83515 9.77666 4.79608 8.49808 4.79608L8.37061 4.80767Z" fill="#ABABAB"/>
<path d="M8.49801 3.25101C10.6302 3.25101 12.3608 4.98154 12.3608 7.11378C12.3608 7.61208 12.2604 8.08719 12.0865 8.52367L14.3462 10.7834C15.5128 9.80997 16.4321 8.55073 17 7.11378C15.6596 3.72229 12.3647 1.31964 8.49804 1.31964C7.41646 1.31964 6.38126 1.51277 5.41943 1.86042L7.08815 3.52525C7.52459 3.3553 7.99971 3.25101 8.49801 3.25101Z" fill="#ABABAB"/>
<path d="M0.77254 1.14577L2.53396 2.90719L2.88548 3.25871C1.61077 4.2553 0.60259 5.58024 0 7.11373C1.33653 10.5052 4.63531 12.9079 8.49808 12.9079C9.69555 12.9079 10.8389 12.6761 11.8857 12.2551L12.2141 12.5834L14.4661 14.8392L15.4511 13.8581L1.75754 0.160767L0.77254 1.14577ZM5.04477 5.41413L6.23837 6.60772C6.2036 6.77383 6.18043 6.93991 6.18043 7.11373C6.18043 8.39232 7.2195 9.43139 8.49808 9.43139C8.6719 9.43139 8.83801 9.40821 9.00025 9.37345L10.1938 10.567C9.68008 10.822 9.10842 10.9765 8.49808 10.9765C6.36584 10.9765 4.63531 9.24598 4.63531 7.11373C4.63531 6.50343 4.78983 5.93173 5.04477 5.41413Z" fill="#ABABAB"/>
</svg>
