<svg width="60" height="60" viewBox="0 0 60 60" fill="none" xmlns="http://www.w3.org/2000/svg">
<circle cx="30" cy="30" r="30" fill="#EFF6F1"/>
<path d="M38.7509 30.1943C38.7509 29.4749 38.6913 28.9499 38.5624 28.4055H30.1794V31.6526H35.1C35.0009 32.4596 34.4652 33.6749 33.2747 34.4915L33.258 34.6002L35.9085 36.6125L36.0921 36.6305C37.7786 35.104 38.7509 32.8582 38.7509 30.1943Z" fill="#274C5B"/>
<path d="M30.1788 38.75C32.5895 38.75 34.6133 37.9722 36.0915 36.6305L33.274 34.4916C32.5201 35.0068 31.5081 35.3666 30.1788 35.3666C27.8177 35.3666 25.8138 33.8402 25.0994 31.7305L24.9947 31.7392L22.2387 33.8295L22.2026 33.9277C23.6709 36.786 26.6867 38.75 30.1788 38.75Z" fill="#274C5B"/>
<path d="M25.1001 31.7305C24.9117 31.1861 24.8026 30.6027 24.8026 30C24.8026 29.3972 24.9117 28.8139 25.0902 28.2694L25.0852 28.1535L22.2946 26.0296L22.2033 26.0722C21.5982 27.2583 21.251 28.5903 21.251 30C21.251 31.4097 21.5982 32.7416 22.2033 33.9277L25.1001 31.7305Z" fill="#274C5B"/>
<path d="M30.1789 24.6333C31.8554 24.6333 32.9864 25.343 33.6312 25.9361L36.1511 23.525C34.6035 22.1153 32.5895 21.25 30.1789 21.25C26.6868 21.25 23.6709 23.2139 22.2026 26.0722L25.0895 28.2694C25.8138 26.1597 27.8178 24.6333 30.1789 24.6333Z" fill="#274C5B"/>
</svg>
