<svg width="30" height="30" viewBox="0 0 30 30" fill="none" xmlns="http://www.w3.org/2000/svg">
<path d="M15.3957 2.82959C12.207 2.82959 9.61475 5.42189 9.61475 8.61053C9.61475 11.7383 12.061 14.2698 15.2496 14.3793C15.347 14.3671 15.4444 14.3671 15.5174 14.3793C15.5417 14.3793 15.5539 14.3793 15.5782 14.3793C15.5904 14.3793 15.5904 14.3793 15.6026 14.3793C18.7182 14.2698 21.1645 11.7383 21.1766 8.61053C21.1766 5.42189 18.5843 2.82959 15.3957 2.82959Z" fill="#7EB693"/>
<path d="M21.5782 17.6166C18.1826 15.3529 12.6451 15.3529 9.22521 17.6166C7.67957 18.6511 6.82764 20.0507 6.82764 21.5477C6.82764 23.0446 7.67957 24.4321 9.21304 25.4544C10.9169 26.5984 13.1562 27.1704 15.3956 27.1704C17.635 27.1704 19.8743 26.5984 21.5782 25.4544C23.1116 24.4199 23.9636 23.0325 23.9636 21.5233C23.9514 20.0264 23.1116 18.639 21.5782 17.6166Z" fill="#7EB693"/>
</svg>
